<svg xmlns="http://www.w3.org/2000/svg" version="1.1" xmlns:xlink="http://www.w3.org/1999/xlink" xmlns:svgjs="http://svgjs.dev/svgjs" width="2440" height="560" preserveAspectRatio="none" viewBox="0 0 2440 560">
    <g mask="url(&quot;#SvgjsMask1037&quot;)" fill="none">
        <path d="M2521.333333333333 560L0 560 L0 243.43Q115.73 155.83, 203.33333333333331 271.56Q318.41 183.3, 406.66666666666663 298.37Q474.49 162.86, 610 230.68Q680.79 98.14, 813.3333333333333 168.93Q978.1 130.36, 1016.6666666666665 295.13Q1087.19 243.65, 1138.6666666666665 314.18Q1168.21 140.39, 1341.9999999999998 169.94Q1455.55 80.16, 1545.333333333333 193.71Q1640.9 167.27, 1667.333333333333 262.84Q1792.99 185.16, 1870.6666666666663 310.82Q1960.12 196.94, 2073.9999999999995 286.39Q2159.53 249.92, 2195.9999999999995 335.45Q2200 217.45, 2317.9999999999995 221.45Q2426.63 126.74, 2521.333333333333 235.37z" fill="#92DEEA"></path>
        <path d="M2480.6666666666665 560L0 560 L0 429.02Q13.18 320.2, 122 333.38Q217.31 225.36, 325.3333333333333 320.67Q491.16 283.16, 528.6666666666666 448.99Q578.64 376.96, 650.6666666666666 426.93Q716.82 371.09, 772.6666666666666 437.24Q822.32 283.56, 976 333.22Q1057.09 210.98, 1179.3333333333333 292.07Q1360.13 269.53, 1382.6666666666665 450.33Q1407.32 352.98, 1504.6666666666665 377.63Q1598.31 267.94, 1707.9999999999998 361.58Q1760.4 291.98, 1829.9999999999998 344.38Q1974.1 285.14, 2033.333333333333 429.24Q2059.5 333.41, 2155.333333333333 359.58Q2283.66 284.58, 2358.6666666666665 412.91Q2429.7 361.95, 2480.6666666666665 432.98z" fill="#C9ECF7"></path>
        <path d="M2521.333333333333 560L0 560 L0 495.5Q148.25 440.41, 203.33333333333331 588.66Q241.13 423.12, 406.66666666666663 460.92Q513.81 364.73, 610 471.88Q694.5 353.05, 813.3333333333333 437.55Q922.74 343.62, 1016.6666666666665 453.03Q1106.93 421.29, 1138.6666666666665 511.56Q1225.93 476.83, 1260.6666666666665 564.09Q1386.37 486.46, 1463.9999999999998 612.17Q1523.03 467.87, 1667.333333333333 526.9Q1753.73 491.3, 1789.333333333333 577.69Q1837.68 422.7, 1992.6666666666663 471.05Q2066.79 423.17, 2114.666666666666 497.29Q2198.15 377.44, 2317.9999999999995 460.93Q2494.3 433.9, 2521.333333333333 610.2z" fill="rgba(255, 255, 255, 1)"></path>
    </g>
    <defs>
        <mask id="SvgjsMask1037">
            <rect  width="2440" height="560" fill="#ffffff"></rect>
        </mask>
    </defs>
</svg>