<svg xmlns="http://www.w3.org/2000/svg" version="1.1" xmlns:xlink="http://www.w3.org/1999/xlink" viewBox="0 0 700 700" style="overflow: hidden; display: block;" width="700" height="700"><defs></defs><g id="two-0" transform="matrix(1 0 0 1 0 0)" opacity="1"><path transform="matrix(1 0 0 1 350 350)" id="two-338" d="M 291.120252 120.585956 C 291.468288 164.769167 279.682881 217.265986 247.000853 247.000853 C 213.994796 277.03053 160.28322 281.258326 115.702253 279.329949 C 75.409673 277.58707 39.627771 247.46747 0 239.972843 C -31.661598 233.984824 -65.383115 237.517328 -97.541961 235.487123 C -139.731439 232.823678 -189.073346 247.131556 -225.232252 225.232251 C -260.137228 204.092378 -271.428796 156.329604 -291.108961 120.581279 C -312.366474 81.967758 -363.905802 41.322355 -348.564719 0 C -327.369293 -57.091465 -208.950237 -21.019763 -179.699624 -74.434022 C -159.723045 -110.913059 -210.151358 -158.919535 -198.982488 -198.982488 C -188.219274 -237.590344 -158.09785 -276.949262 -120.984454 -292.082308 C -83.832531 -307.231063 -39.213939 -288.540575 -0.000001 -280.05428 C 34.641012 -272.557613 69.496381 -260.329912 101.706159 -245.54039 C 133.199563 -231.0798 176.854036 -223.227847 192.113834 -192.113835 C 209.501469 -156.661267 164.864011 -110.90772 177.183339 -73.391743 C 187.604547 -41.656097 229.27355 -28.378484 246.892133 -0.000001 C 269.248679 36.009984 290.786387 78.20173 291.120252 120.585956 Z " fill="hsl(205, 69%, 50%)" stroke="undefined" stroke-width="1" stroke-opacity="1" fill-opacity="1" visibility="visible" stroke-linecap="butt" stroke-linejoin="miter" stroke-miterlimit="4"></path></g></svg>