<svg xmlns="http://www.w3.org/2000/svg" version="1.1" xmlns:xlink="http://www.w3.org/1999/xlink" xmlns:svgjs="http://svgjs.dev/svgjs" width="3440" height="560" preserveAspectRatio="none" viewBox="0 0 3440 560">
    <g mask="url(&quot;#SvgjsMask1031&quot;)" fill="none">
        <rect width="3440" height="560" x="0" y="0" fill="rgba(249, 250, 251, 1)"></rect>
        <path d="M 0,64 C 62.6,102.8 187.8,261.8 313,258 C 438.2,254.2 500.8,56.4 626,45 C 751.2,33.6 813.8,194.2 939,201 C 1064.2,207.8 1126.8,77.8 1252,79 C 1377.2,80.2 1439.8,196 1565,207 C 1690.2,218 1752.8,129.4 1878,134 C 2003.2,138.6 2065.8,229.2 2191,230 C 2316.2,230.8 2378.8,155.8 2504,138 C 2629.2,120.2 2691.8,160.6 2817,141 C 2942.2,121.4 3005.4,37.2 3130,40 C 3254.6,42.8 3378,132 3440,155L3440 560L0 560z" fill="rgba(249, 250, 251, 1)"></path>
        <path d="M 0,387 C 76.6,394.8 229.8,443.8 383,426 C 536.2,408.2 612.8,286.8 766,298 C 919.2,309.2 995.8,483.8 1149,482 C 1302.2,480.2 1378.8,275.6 1532,289 C 1685.2,302.4 1761.8,546.2 1915,549 C 2068.2,551.8 2144.8,324 2298,303 C 2451.2,282 2527.8,436.6 2681,444 C 2834.2,451.4 2912.2,337.6 3064,340 C 3215.8,342.4 3364.8,432.8 3440,456L3440 560L0 560z" fill="rgba(255, 255, 255, 1)"></path>
    </g>
    <defs>
        <mask id="SvgjsMask1031">
            <rect width="3440" height="560" fill="#ffffff"></rect>
        </mask>
    </defs>
</svg>