<svg xmlns="http://www.w3.org/2000/svg" version="1.1" xmlns:xlink="http://www.w3.org/1999/xlink" xmlns:svgjs="http://svgjs.dev/svgjs" width="2240" height="560" preserveAspectRatio="none" viewBox="0 0 2240 560">
    <g mask="url(&quot;#SvgjsMask1069&quot;)" fill="none">
        <path d="M2314.666666666667 560L0 560 L0 194.22Q16.33 98.55, 112 114.88Q213.13 29.34, 298.6666666666667 130.47Q459.51 104.65, 485.33333333333337 265.5Q491.59 159.75, 597.3333333333334 166.01Q681.55 63.56, 784 147.77Q856.74 108.51, 896 181.25Q997.56 96.15, 1082.6666666666667 197.71Q1166.54 169.59, 1194.6666666666667 253.46Q1225.4 97.53, 1381.3333333333335 128.27Q1487.32 47.59, 1568.0000000000002 153.58Q1651.43 125, 1680.0000000000002 208.43Q1794.58 136.34, 1866.666666666667 250.92Q1866.99 139.25, 1978.666666666667 139.57Q2025.49 74.39, 2090.666666666667 121.22Q2182.49 101.05, 2202.666666666667 192.87Q2284.5 162.7, 2314.666666666667 244.53z" fill="rgba(193, 210, 210, 1)"></path>
        <path d="M2277.3333333333335 560L0 560 L0 437.32Q105.7 356.36, 186.66666666666669 462.06Q223.76 312.49, 373.33333333333337 349.58Q453.11 242.69, 560 322.47Q629.11 204.91, 746.6666666666667 274.02Q810.85 226.2, 858.6666666666667 290.39Q930.72 250.44, 970.6666666666667 322.5Q1058.02 297.85, 1082.6666666666667 385.2Q1115.92 231.79, 1269.3333333333335 265.05Q1388.08 197.13, 1456.0000000000002 315.87Q1499.92 247.79, 1568.0000000000002 291.71Q1612.55 224.26, 1680.0000000000002 268.81Q1771.88 248.69, 1792.0000000000002 340.57Q1920.66 282.56, 1978.666666666667 411.22Q2051.19 297.08, 2165.3333333333335 369.6Q2168 260.26, 2277.3333333333335 262.93z" fill="rgba(227, 233, 233, 1)"></path>
        <path d="M2277.3333333333335 560L0 560 L0 453.04Q93.97 435.01, 112 528.99Q199.12 504.11, 224 591.22Q293.92 549.14, 336 619.07Q390.07 486.48, 522.6666666666667 540.55Q531.08 436.96, 634.6666666666667 445.38Q680.54 379.25, 746.6666666666667 425.12Q870.99 362.78, 933.3333333333335 487.1Q975.24 417.01, 1045.3333333333335 458.92Q1095.62 397.21, 1157.3333333333335 447.5Q1261.93 440.1, 1269.3333333333335 544.7Q1297.97 461.34, 1381.3333333333335 489.98Q1455.7 377.68, 1568.0000000000002 452.04Q1653.02 425.06, 1680.0000000000002 510.07Q1781.67 499.74, 1792.0000000000002 601.4Q1858.51 481.24, 1978.666666666667 547.75Q1967.56 424.64, 2090.666666666667 413.53Q2234.72 370.91, 2277.3333333333335 514.96z" fill="rgba(227, 233, 233, 1)"></path>
    </g>
    <defs>
        <mask id="SvgjsMask1069">
            <rect width="2240" height="560" fill="#ffffff"></rect>
        </mask>
    </defs>
</svg>