<svg xmlns="http://www.w3.org/2000/svg" version="1.1" xmlns:xlink="http://www.w3.org/1999/xlink" xmlns:svgjs="http://svgjs.dev/svgjs" width="3440" height="560" preserveAspectRatio="none" viewBox="0 0 3440 560">
    <g mask="url(&quot;#SvgjsMask1003&quot;)" fill="none">
        <rect width="3440" height="560" x="0" y="0" fill="rgba(227, 233, 233, 1)"></rect>
        <path d="M 0,134 C 62.6,154.2 187.8,253.6 313,235 C 438.2,216.4 500.8,32.4 626,41 C 751.2,49.6 813.8,258.6 939,278 C 1064.2,297.4 1126.8,146.8 1252,138 C 1377.2,129.2 1439.8,260.2 1565,234 C 1690.2,207.8 1752.8,9 1878,7 C 2003.2,5 2065.8,200.2 2191,224 C 2316.2,247.8 2378.8,118 2504,126 C 2629.2,134 2691.8,288.8 2817,264 C 2942.2,239.2 3005.4,1.2 3130,2 C 3254.6,2.8 3378,214.8 3440,268L3440 560L0 560z" fill="rgba(227, 233, 233, 1)"></path>
        <path d="M 0,501 C 76.6,473 229.8,375.8 383,361 C 536.2,346.2 612.8,426.8 766,427 C 919.2,427.2 995.8,359.8 1149,362 C 1302.2,364.2 1378.8,454 1532,438 C 1685.2,422 1761.8,278.8 1915,282 C 2068.2,285.2 2144.8,442.8 2298,454 C 2451.2,465.2 2527.8,324.2 2681,338 C 2834.2,351.8 2912.2,520.8 3064,523 C 3215.8,525.2 3364.8,383.8 3440,349L3440 560L0 560z" fill="rgba(249, 250, 251, 1)"></path>
    </g>
    <defs>
        <mask id="SvgjsMask1003">
            <rect width="3440" height="560" fill="#ffffff"></rect>
        </mask>
    </defs>
</svg>